<svg xmlns="http://www.w3.org/2000/svg" xmlns:xlink="http://www.w3.org/1999/xlink" viewBox="0 0 400 400"><defs><clipPath id="clip-path"><path d="M55.15,391.93l289.51.14a44.23,44.23,0,0,0,44.27-44.22l.15-289.51a44.26,44.26,0,0,0-44.23-44.27l-289.5-.14A44.23,44.23,0,0,0,11.08,58.15l-.15,289.51a44.26,44.26,0,0,0,44.22,44.27" fill="none"/></clipPath></defs><title>Artboard 1</title><g id="Layer_4" data-name="Layer 4"><path d="M56.79,390.85l287.15.15a43.89,43.89,0,0,0,43.91-43.87L388,60a43.89,43.89,0,0,0-43.87-43.91L57,15.93A43.87,43.87,0,0,0,13.07,59.79l-.14,287.15a43.87,43.87,0,0,0,43.86,43.91" fill="#2c3e50" stroke="#2c3e50" stroke-miterlimit="10" stroke-width="2"/></g><g id="Layer_1" data-name="Layer 1"><g clip-path="url(#clip-path)"><text transform="translate(7.47 389.28) rotate(0.03)" font-size="258" fill="#ecf0f1" stroke="#ecf0f1" stroke-miterlimit="10" stroke-width="12" font-family="FiraCode-Retina, Fira Code">A</text><text transform="translate(160.41 389.65) rotate(0.03)" font-size="168" fill="#ecf0f1" stroke="#ecf0f1" stroke-miterlimit="10" stroke-width="12" font-family="FiraCode-Retina, Fira Code">K</text><text transform="translate(266.41 389.69) rotate(0.03)" font-size="168" fill="#ecf0f1" stroke="#ecf0f1" stroke-miterlimit="10" stroke-width="12" font-family="FiraCode-Retina, Fira Code">K</text></g></g><g id="Layer_2" data-name="Layer 2"><g id="Layer_3" data-name="Layer 3"><circle cx="292.55" cy="105.55" r="46.5" fill="#ecf0f1" stroke="#2c3e50" stroke-miterlimit="10" stroke-width="4"/></g></g></svg>